PathFileType	4	(X/Y/Z)	C:\Users\Biomechanik\SynologyDrive\AlexP\Athlete_03\Athlete_3_25_03_31\Squat_bar_04\marker_experimental.trc
DataRate	CameraRate	NumFrames	NumMarkers	Units	OrigDataRate	OrigDataStartFrame	OrigNumFrames
200.000000	200.000000	4	55	mm	200.000000	115	461
Frame#	Time	BL			BR			GLAB			RFHD			LFHD			C7			T6			SPINMOL			SPINM2			SPINM3			T12			BELTOL			BELT2			BELT3			SACROL			SACR2			SACR3			LTHOL			LTH2			LTH3			LSHAOL			LSHA2			LSHA3			LHEE			LTOE			LM5			RTHOL			RTH2			RTH3			RSHAOL			RSHA2			RSHA3			RHEE			RTOE			RM5			STRN			XIPH			LACR			LUAOL			LUA2			LUA3			LLAOL			LLA2			LLA3			LWRR			LWRU			RACR			RUAOL			RUA2			RUA3			RLAOL			RLA2			RLA3			RWRR			RWRU			
		X1	Y1	Z1	X2	Y2	Z2	X3	Y3	Z3	X4	Y4	Z4	X5	Y5	Z5	X6	Y6	Z6	X7	Y7	Z7	X8	Y8	Z8	X9	Y9	Z9	X10	Y10	Z10	X11	Y11	Z11	X12	Y12	Z12	X13	Y13	Z13	X14	Y14	Z14	X15	Y15	Z15	X16	Y16	Z16	X17	Y17	Z17	X18	Y18	Z18	X19	Y19	Z19	X20	Y20	Z20	X21	Y21	Z21	X22	Y22	Z22	X23	Y23	Z23	X24	Y24	Z24	X25	Y25	Z25	X26	Y26	Z26	X27	Y27	Z27	X28	Y28	Z28	X29	Y29	Z29	X30	Y30	Z30	X31	Y31	Z31	X32	Y32	Z32	X33	Y33	Z33	X34	Y34	Z34	X35	Y35	Z35	X36	Y36	Z36	X37	Y37	Z37	X38	Y38	Z38	X39	Y39	Z39	X40	Y40	Z40	X41	Y41	Z41	X42	Y42	Z42	X43	Y43	Z43	X44	Y44	Z44	X45	Y45	Z45	X46	Y46	Z46	X47	Y47	Z47	X48	Y48	Z48	X49	Y49	Z49	X50	Y50	Z50	X51	Y51	Z51	X52	Y52	Z52	X53	Y53	Z53	X54	Y54	Z54	X55	Y55	Z55	

116	0.5750000000000001	188.5098724365234	1232.892211914063	-2238.865234375	220.3592376708984	1284.437866210938	-218.7889404296874	495.4942932128906	1439.179321289062	-1188.452880859375	444.3750610351562	1464.80908203125	-1126.072387695312	453.8273010253906	1464.72705078125	-1261.409790039062	256.1195373535156	1323.26904296875	-1198.730346679688	142.8196411132812	1192.609375	-1206.608276367188	121.9420776367188	1165.134887695312	-1226.739379882812	113.3708114624023	1158.0703125	-1177.9052734375	95.07804870605469	1105.929565429688	-1213.98046875	73.32746887207031	1043.987548828125	-1214.51318359375	38.36293029785156	1019.660339355469	-1230.010498046875	37.49625015258789	1016.109558105469	-1179.75634765625	10.21419429779053	963.2081298828126	-1209.468383789062	-21.28923797607422	871.1843872070314	-1235.83642578125	-21.05395698547363	868.1885375976564	-1184.222045898438	-34.96636199951172	810.1020507812501	-1212.692016601562	125.2278518676758	612.5576782226564	-1474.508178710938	123.5471038818359	535.3380126953126	-1459.333984375	156.6210479736328	561.8939208984376	-1486.255981445312	188.1056976318359	324.944305419922	-1564.013061523438	138.1471557617188	267.6098937988282	-1539.831176757812	184.0871429443359	262.9582824707032	-1560.476440429688	112.3705978393555	69.71788787841805	-1464.2958984375	315.1981811523438	50.22385787963876	-1540.474365234375	238.0093231201172	26.6679515838624	-1619.654907226562	99.62963104248047	611.3076171875001	-955.9494018554688	160.7200317382812	602.8834228515625	-905.060302734375	138.7690734863281	568.3609008789064	-933.0353393554688	156.2797088623047	341.3958435058594	-857.7219848632812	173.9718627929688	266.5694885253907	-842.2376098632812	137.2474975585938	283.2828674316407	-870.6568603515625	89.70625305175781	63.73175430297857	-966.1780395507812	280.0391235351562	47.89868927001958	-869.5603637695312	191.2423858642578	38.18881607055669	-799.2589721679688	381.8969421386719	1171.596557617188	-1205.561889648438	351.4543762207031	1026.6259765625	-1202.815795898438	295.6886291503906	1275.931762695312	-1371.593872070312	180.2033843994141	1160.030029296875	-1461.799926757812	131.3155212402344	1117.923461914062	-1448.814819335938	160.81396484375	1102.943603515625	-1487.554809570312	132.4206848144531	1035.403198242188	-1555.361083984375	202.5666656494141	1029.636840820312	-1591.749633789062	174.8341064453125	1070.79150390625	-1582.186645507812	232.2048645019531	1148.83837890625	-1623.441772460938	244.8985595703125	1178.53857421875	-1551.562255859375	310.8199462890625	1269.890380859375	-1038.423706054688	196.6632232666016	1160.135375976562	-952.2272338867186	171.0818176269531	1106.161865234375	-923.8967285156249	148.9999237060547	1118.680419921875	-969.3599243164061	165.7603759765625	1039.408203125	-839.3444213867186	168.9819030761719	1118.675170898438	-829.0452270507811	204.6697082519531	1083.180419921875	-818.7087402343749	240.1569061279297	1168.71875	-799.8842163085936	264.5677795410156	1198.96435546875	-870.1457519531249	
117	0.58	188.8568267822266	1229.382202148438	-2238.78125	220.8377838134766	1281.2158203125	-218.7399597167968	496.1802368164062	1435.394165039062	-1188.398071289062	445.0724182128906	1461.03955078125	-1126.019653320312	454.5297546386719	1460.977294921875	-1261.349853515625	256.6836242675781	1319.8212890625	-1198.683349609375	143.0759429931641	1189.49267578125	-1206.579467773438	122.1397476196289	1162.107421875	-1226.69482421875	113.5494613647461	1155.06396484375	-1177.87451171875	95.08219909667969	1102.994995117188	-1213.935668945312	73.14384460449219	1041.160522460938	-1214.471801757812	38.09293365478516	1016.931640625	-1229.98681640625	37.21501922607422	1013.41796875	-1179.736938476562	9.737207412719727	960.5933837890626	-1209.434814453125	-22.0658016204834	868.4307861328126	-1235.702880859375	-21.78928184509277	865.4069824218751	-1184.0869140625	-35.76682662963867	807.3428344726564	-1212.576538085938	125.3872909545898	610.4797363281251	-1475.14013671875	124.3990020751953	533.1780395507814	-1460.162841796875	157.1369934082031	560.1122436523439	-1487.103271484375	189.0704193115234	324.5323181152345	-1565.057250976562	138.9242706298828	267.463836669922	-1540.635498046875	184.8375701904297	262.5809631347657	-1561.288330078125	112.4003448486328	69.72373962402352	-1464.267944335938	315.2075805664062	50.19121551513681	-1540.45751953125	238.0093231201172	26.66936492919932	-1619.65576171875	99.81734466552734	609.0963745117189	-955.0841064453125	160.8450317382812	601.3628540039062	-904.013916015625	139.2916259765625	566.5598144531251	-931.9635009765625	157.384765625	341.0086059570313	-856.6011962890625	174.7604522705078	266.0486450195313	-841.4072875976562	138.1189270019531	283.0244750976563	-869.7796630859375	89.72765350341797	63.77696990966803	-966.1934204101562	280.0237121582031	47.89657211303716	-869.5712890625	191.2366943359375	38.18571472167974	-799.2510986328125	382.1139526367188	1167.835083007812	-1205.542846679688	351.3449096679688	1022.930297851563	-1202.807495117188	296.1272277832031	1272.356323242188	-1371.572265625	180.3769836425781	1156.71142578125	-1461.72216796875	131.332275390625	1114.744384765625	-1448.729125976562	160.7839508056641	1099.673583984375	-1487.462768554688	132.2144165039062	1032.202270507812	-1555.250244140625	202.3452301025391	1026.22119140625	-1591.649169921875	174.7221069335938	1067.466674804688	-1582.087768554688	232.2897186279297	1145.348022460938	-1623.382934570312	245.0787658691406	1175.022583007812	-1551.500610351562	311.28662109375	1266.276733398438	-1038.397583007812	196.8110809326172	1156.845581054688	-952.2380371093749	171.0683746337891	1102.952392578125	-923.8960571289061	149.0273895263672	1115.522338867188	-969.3657836914061	165.5389404296875	1036.233764648438	-839.3203124999999	168.9909057617188	1115.497314453125	-829.0327148437499	204.5672760009766	1079.900024414062	-818.6780395507811	240.3203582763672	1165.323364257812	-799.8388061523436	264.8125	1195.496459960938	-870.0891723632811	
118	0.585	189.1983184814453	1225.83154296875	-2238.697509765625	221.3156433105469	1277.943969726562	-218.6887054443359	496.8533935546875	1431.573852539062	-1188.346069335938	445.75634765625	1457.230712890625	-1125.970703125	455.2152709960938	1457.190185546875	-1261.2900390625	257.2430725097656	1316.329467773438	-1198.634155273438	143.3311920166016	1186.328247070312	-1206.550537109375	122.3381500244141	1159.031372070312	-1226.651489257812	113.7269592285156	1152.01123046875	-1177.843383789062	95.08749389648438	1100.0126953125	-1213.891357421875	72.9639892578125	1038.285888671875	-1214.429321289062	37.83260726928711	1014.153076171875	-1229.970825195312	36.93699645996094	1010.678405761719	-1179.725708007812	9.270014762878418	957.9282226562501	-1209.411743164062	-22.83624267578125	865.6296386718751	-1235.575927734375	-22.51527786254883	862.5724487304689	-1183.95751953125	-36.55344390869141	804.5329589843751	-1212.472534179688	125.5469284057617	608.4017944335939	-1475.780883789062	125.2489471435547	531.0239257812501	-1461.005737304688	157.6534423828125	558.3316040039064	-1487.958618164062	190.0137481689453	324.1179809570314	-1566.100219726562	139.6838073730469	267.3164062500001	-1541.435546875	185.5669403076172	262.2026977539064	-1562.102416992188	112.4294662475586	69.73028564453134	-1464.242065429688	315.2156066894531	50.15935134887705	-1540.4423828125	238.0077972412109	26.66851997375498	-1619.658081054688	99.99845123291016	606.8698730468751	-954.1937866210938	160.973876953125	599.8328857421875	-902.96142578125	139.80712890625	564.7482910156251	-930.8673706054688	158.4746398925781	340.6146240234376	-855.4776611328125	175.5320129394531	265.5220336914063	-840.5740966796875	138.9762268066406	282.7614135742188	-868.9038696289062	89.75065612792969	63.82360458374029	-966.2079467773438	280.0091552734375	47.89356231689458	-869.5840454101562	191.2296752929688	38.18101501464849	-799.2407836914062	382.3275451660156	1164.029296875	-1205.52294921875	351.2324829101562	1019.191467285156	-1202.799438476562	296.5614318847656	1268.738037109375	-1371.549926757812	180.5480804443359	1153.348266601562	-1461.642456054688	131.3493804931641	1111.521484375	-1448.640747070312	160.7481842041016	1096.359130859375	-1487.370361328125	132.0083312988281	1028.95703125	-1555.13818359375	202.1229858398438	1022.764221191406	-1591.546997070312	174.6096038818359	1064.09814453125	-1581.987548828125	232.3723754882812	1141.814819335938	-1623.322143554688	245.2559204101562	1171.463256835938	-1551.43701171875	311.7501831054688	1262.624145507812	-1038.3701171875	196.9618377685547	1153.515502929688	-952.2465820312499	171.0570526123047	1099.701782226562	-923.8931274414061	149.05712890625	1112.323852539062	-969.3693847656249	165.3192443847656	1033.016723632812	-839.2966918945311	169.0013275146484	1112.274536132812	-829.0181274414061	204.4674377441406	1076.575927734375	-818.6464843749999	240.4815368652344	1161.884155273438	-799.7930297851561	265.0587158203125	1191.982666015625	-870.0310058593749	
119	0.59	189.5344085693359	1222.24169921875	-2238.61474609375	221.7930755615234	1274.623413085938	-218.6356964111327	497.5141296386719	1427.719482421875	-1188.29736328125	446.4272155761719	1453.384155273438	-1125.92626953125	455.8842468261719	1453.366577148438	-1261.231567382812	257.7979431152344	1312.79443359375	-1198.582763671875	143.5852355957031	1183.117065429688	-1206.520141601562	122.537483215332	1155.90771484375	-1226.607666015625	113.9039916992188	1148.912963867188	-1177.80908203125	95.09341430664062	1096.983276367188	-1213.845458984375	72.78815460205078	1035.364013671875	-1214.383422851562	37.58129501342773	1011.325134277344	-1229.957885742188	36.66194152832031	1007.8896484375	-1179.717407226562	8.815027236938477	955.2121582031251	-1209.393920898438	-23.60128974914551	862.7810668945314	-1235.45458984375	-23.23332023620605	859.6856079101564	-1183.833374023438	-37.32725143432617	801.6727294921876	-1212.378540039062	125.7069702148438	606.3276977539064	-1476.43017578125	126.0932312011719	528.8789672851564	-1461.867797851562	158.1695709228516	556.5559082031251	-1488.824951171875	190.9365844726562	323.7017211914064	-1567.142700195312	140.4261627197266	267.1681518554689	-1542.232421875	186.2757415771484	261.8240051269532	-1562.919067382812	112.4581069946289	69.73770904541024	-1464.218017578125	315.2222595214844	50.12896347045908	-1540.429443359375	238.0047760009766	26.66534805297862	-1619.662231445312	100.1741180419922	604.6284790039064	-953.2796630859375	161.1096343994141	598.2948608398438	-901.9061889648438	140.3170776367188	562.9268798828126	-929.7481079101562	159.5510406494141	340.2126159667969	-854.3490600585938	176.2899932861328	264.9880981445313	-839.7368774414062	139.8213195800781	282.4925537109376	-868.0272827148438	89.77559661865234	63.87156295776373	-966.2214965820312	279.9960021972656	47.88932037353521	-869.5980834960938	191.2214508056641	38.17487335205083	-799.2280883789062	382.5378723144531	1160.180053710938	-1205.501831054688	351.1169128417969	1015.410217285156	-1202.790771484375	296.9915466308594	1265.077270507812	-1371.526733398438	180.7169036865234	1149.94091796875	-1461.560913085938	131.3675842285156	1108.254760742188	-1448.550170898438	160.7079162597656	1093.000244140625	-1487.27783203125	131.8030548095703	1025.667602539062	-1555.025756835938	201.9014129638672	1019.266540527344	-1591.443237304688	174.4977722167969	1060.686279296875	-1581.886474609375	232.4538421630859	1138.239624023438	-1623.259155273438	245.4305725097656	1167.861083984375	-1551.371704101562	312.2103271484375	1258.93359375	-1038.340087890625	197.1167907714844	1150.146118164062	-952.2520751953124	171.0491790771484	1096.410888671875	-923.8873291015624	149.0901184082031	1109.085571289062	-969.3696899414061	165.1028137207031	1029.757690429688	-839.2732543945311	169.0139465332031	1109.00634765625	-829.0012207031249	204.3717498779297	1073.209106445312	-818.6137695312499	240.6413726806641	1158.402221679688	-799.7467651367186	265.3090515136719	1188.425048828125	-869.9722290039061	
